<?xml version="1.0"?><svg width="1600" height="1200" xmlns="http://www.w3.org/2000/svg">
 <title>Bisexual Logo</title>

 <metadata id="metadata7">image/svg+xml</metadata>
 <g>
  <title>Layer 1</title>
  <g id="layer1">
   <path fill="#000000" id="path2453" d="m316.87442,1168.875488c-4.828949,-2.379883 -11.72699,-9.355957 -15.329102,-15.502563c-6.286011,-10.72644 -6.549255,-13.067749 -6.549255,-58.261475l0,-47.085938l-51.143936,0c-45.902618,0 -52.254623,-0.550537 -61.982819,-5.370728c-16.563766,-8.207275 -21.502625,-16.770874 -21.502625,-37.28418c0,-20.513306 4.938858,-29.077026 21.502625,-37.284302c9.728195,-4.820129 16.0802,-5.370483 61.982819,-5.370483l51.143936,0l0,-79.704285l0,-79.704102l-17.792419,-3.09845c-117.400848,-20.444336 -218.237343,-108.087524 -256.540651,-222.974792c-20.869713,-62.596741 -21.917381,-139.801788 -2.747597,-202.478668c37.922606,-123.990463 143.33935,-214.530655 271.618906,-233.287643c35.398682,-5.175919 96.781677,-1.960068 129.42746,6.780746c48.045898,12.864151 91.65506,34.079514 126.78653,61.680405c15.020508,11.800812 60.733093,60.706894 94.485596,101.086411c8.797546,10.524902 30.531738,35.221252 48.298218,54.880829l32.302612,35.744629l-30.010986,31.087067l-30.011292,31.086975l-44.946289,-50.612366c-24.720642,-27.836761 -60.846802,-68.484528 -80.280518,-90.328278c-20.30365,-22.821472 -42.417419,-44.757385 -51.985626,-51.567413c-75.294861,-53.589706 -174.208954,-61.960693 -255.781662,-21.646408c-64.057861,31.658279 -109.707825,87.539017 -130.604637,159.875137c-5.353745,18.53241 -6.131775,26.917419 -5.936661,63.982239c0.202225,38.421692 0.945786,45.036041 7.492157,66.648224c17.970909,59.328857 56.009041,109.650452 106.827019,141.323853c70.215454,43.763428 153.922241,50.149292 230.456238,17.581116l18.975983,-8.075134l21.346863,22.235535c11.740814,12.229431 26.126831,25.547852 31.969055,29.596436c7.822693,5.421204 9.900269,8.230896 7.883179,10.66156c-4.800476,5.784119 -56.494659,29.925659 -78.604309,36.708801c-11.730042,3.598694 -29.42511,8.033081 -39.322479,9.854187l-17.994965,3.311401l0,79.526245l0,79.52655l55.318054,0.815979c52.98938,0.78186 55.684387,1.077454 64.022461,7.024658c11.468628,8.180115 17.559387,20.359497 17.559387,35.113342c0,14.753845 -6.090759,26.933228 -17.559387,35.113525c-8.338074,5.947144 -11.033081,6.242798 -64.022461,7.024414l-55.318054,0.816284l0,46.936279c0,45.082397 -0.259613,47.379395 -6.573975,58.153809c-3.834747,6.543701 -10.389587,13.028198 -15.731903,15.563477c-11.630524,5.519165 -29.810944,5.473389 -41.125488,-0.102905zm370.013153,-365.230957c-46.865479,-7.420532 -81.929749,-18.515686 -117.070862,-37.044128c-78.26355,-41.264954 -136.623383,-111.781311 -162.466461,-196.308472c-9.69986,-31.726318 -13.916138,-60.838074 -14.015778,-96.774078c-0.191223,-68.937469 16.606598,-127.498413 52.573425,-183.282562c6.381256,-9.897247 12.630859,-17.995026 13.888031,-17.995026c9.907013,0 67.955109,56.181885 61.908844,59.91861c-4.381653,2.708069 -20.60733,33.525543 -27.871979,52.937469c-12.108459,32.35498 -15.753113,57.43222 -14.190277,97.636658c1.133362,29.155029 2.786957,40.467987 8.589691,58.766083c29.058441,91.631348 98.484955,154.077209 193.323517,173.885071c45.825928,9.571167 102.275269,2.784424 145.293091,-17.468018l18.66156,-8.785706l31.001526,31.458557l31.001709,31.458618l-12.559753,7.727966c-31.186523,19.189392 -74.757507,34.487732 -118.757629,41.697449c-21.771729,3.567505 -72.675476,4.805176 -89.308655,2.171509zm389.225586,0.169556c-68.966248,-12.673767 -96.338562,-22.821899 -142.659058,-52.89032c-28.822021,-18.70929 -52.354919,-42.453552 -156.838196,-158.246521l-39.217224,-43.462341l28.552307,-30.517212c15.703918,-16.784424 29.431274,-30.517212 30.505615,-30.517212c1.074219,0 22.685852,23.093567 48.026001,51.319092c25.340027,28.225525 49.910522,54.918152 54.601135,59.316895c4.690674,4.398804 20.653076,21.405212 35.472168,37.791931c37.934143,41.946899 71.518311,63.019958 121.562744,76.276733c31.339478,8.30188 87.197754,8.134888 118.633789,-0.354553c45.339966,-12.244202 84.973145,-35.172607 116.572266,-67.438782c48.322876,-49.343079 70.79834,-104.668762 70.783325,-174.239807c-0.009033,-40.835907 -6.796387,-70.216553 -24.730225,-107.050842c-24.380127,-50.075043 -63.792603,-89.792114 -113.305542,-114.181564c-34.882568,-17.182556 -57.625732,-22.831924 -98.639526,-24.501724c-41.469971,-1.688431 -73.827271,3.891556 -107.840515,18.596878l-21.453491,9.275177l-11.179932,-13.353226c-6.148987,-7.34433 -19.646057,-20.639786 -29.993408,-29.545517c-10.347473,-8.905746 -18.813477,-17.460236 -18.813477,-19.009979c0,-4.125336 52.920654,-30.059158 74.645996,-36.580276c37.57843,-11.279678 48.796326,-13.113205 89.910828,-14.695679c55.070801,-2.119583 89.81543,3.376678 138.18396,21.85939c19.791016,7.562546 60.138428,29.97934 74.871826,41.598312c5.342773,4.213486 10.750977,7.660965 12.018311,7.660965c1.267212,0 29.876831,-27.592331 63.576904,-61.316376l61.273071,-61.316338l-48.717285,0c-55.238647,0 -62.060059,-1.605133 -74.1427,-17.446381c-6.342285,-8.315125 -7.638428,-12.592419 -7.638428,-25.208488c0,-12.616055 1.296143,-16.893362 7.638428,-25.208466c13.505859,-17.707487 13.514038,-17.708523 132.165405,-16.867264c103.094727,0.730959 106.550049,0.92311 113.844849,6.330847c4.137939,3.067333 10.2229,9.542976 13.521606,14.390348c5.956543,8.75172 5.998657,9.510815 5.998657,108.477093c0,111.017044 -0.120117,111.87384 -17.504639,125.13382c-8.356079,6.373413 -12.642212,7.682739 -25.150024,7.682739c-12.508423,0 -16.794556,-1.309326 -25.150391,-7.682739c-15.343384,-11.702972 -17.504761,-19.710434 -17.504761,-64.856476l0,-39.386337l-61.044556,61.001282l-61.044434,61.001297l9.416016,14.719879c29.193481,45.636688 45.592529,92.904144 51.516846,148.488464c14.322632,134.382721 -57.762695,267.274567 -178.35791,328.808746c-50.243896,25.636963 -87.779907,35.015808 -145.712524,36.408203c-21.994019,0.528625 -42.988159,0.409851 -46.653809,-0.263672zm-496.209167,-149.763123c-20.075623,-15.984131 -40.758728,-38.718445 -39.185547,-43.071777c1.774902,-4.91156 315.283691,-330.741119 318.234619,-330.741119c7.004333,0 61.202209,53.931641 59.178467,58.887665c-1.066711,2.612335 -314.243286,328.944824 -316.491821,329.786926c-1.148254,0.430054 -10.929382,-6.25769 -21.735718,-14.861694zm394.90387,3.575562c-8.064514,-6.488708 -21.420288,-19.435791 -29.679932,-28.771484c-13.961182,-15.780396 -14.735535,-17.339661 -11.009644,-22.173279c2.204285,-2.859741 9.220886,-16.048645 15.592712,-29.308716c66.558411,-138.514557 -9.545898,-302.703674 -160.18512,-345.586792c-18.005005,-5.125488 -27.764893,-6.078629 -62.649353,-6.118347c-45.525696,-0.051819 -61.780579,2.972702 -98.639282,18.353699l-19.994568,8.343582l-30.855469,-31.171738l-30.855286,-31.171768l16.192749,-9.587555c20.270752,-12.002014 57.25293,-26.338287 86.839905,-33.663773c32.476318,-8.040909 96.692383,-10.043304 131.547668,-4.102005c146.330322,24.942947 258.171082,142.13707 276.235291,289.457687c8.047852,65.633148 -3.306763,129.901978 -33.58606,190.100769c-13.356323,26.55426 -26.905273,47.240723 -30.925415,47.217041c-1.851074,-0.010925 -9.963684,-5.328674 -18.028198,-11.817322z"/>
  </g>
 </g>
</svg>