<?xml version="1.0" encoding="UTF-8"?>
<svg xmlns="http://www.w3.org/2000/svg" xmlns:xlink="http://www.w3.org/1999/xlink" width="432pt" height="432pt" viewBox="0 0 432 432" version="1.1">
<defs>
<clipPath id="clip2">
  <path d="M 190 0.785156 L 400 0.785156 L 400 369 L 190 369 Z M 190 0.785156 "/>
</clipPath>
<clipPath id="clip3">
  <path d="M 344 175 L 422.863281 175 L 422.863281 250 L 344 250 Z M 344 175 "/>
</clipPath>
<clipPath id="clip4">
  <path d="M 93 258 L 333 258 L 333 386.488281 L 93 386.488281 Z M 93 258 "/>
</clipPath>
<clipPath id="clip5">
  <path d="M 0.875 175 L 81 175 L 81 250 L 0.875 250 Z M 0.875 175 "/>
</clipPath>
<clipPath id="clip1">
  <rect width="423" height="387"/>
</clipPath>
<g id="surface7" clip-path="url(#clip1)">
<path style=" stroke:none;fill-rule:nonzero;fill:rgb(0%,0%,0%);fill-opacity:1;" d="M 350.460938 229.257812 C 347.996094 231.71875 345.550781 234.453125 342.625 236.277344 C 337.042969 223.578125 331.148438 211.199219 325.335938 198.726562 C 332.671875 190.394531 340.9375 182.988281 348.839844 175.222656 L 403.949219 175.222656 C 403.449219 176.113281 372.816406 206.628906 358.027344 221.421875 C 355.421875 224.023438 353.042969 226.671875 350.460938 229.257812 "/>
<g clip-path="url(#clip2)" clip-rule="nonzero">
<path style=" stroke:none;fill-rule:nonzero;fill:rgb(0%,0%,0%);fill-opacity:1;" d="M 399.359375 368.65625 C 398.675781 367.929688 396.972656 365.730469 396.117188 364.335938 C 337.117188 268.214844 276.726562 172.777344 217.542969 75.804688 C 211.433594 65.792969 204.339844 54.957031 197.820312 44.46875 C 195.527344 40.773438 193.019531 37.089844 191.878906 33.660156 C 186.292969 16.902344 197.539062 2.316406 211.328125 0.96875 C 228.558594 -0.707031 236.03125 9.3125 241.585938 20.964844 C 252.40625 43.652344 263.007812 68.527344 273.195312 90.664062 C 287.5 121.742188 301.714844 152.863281 315.609375 183.058594 C 344.15625 245.078125 370.929688 307.566406 399.359375 368.65625 "/>
</g>
<path style=" stroke:none;fill-rule:nonzero;fill:rgb(0%,0%,0%);fill-opacity:1;" d="M 100.835938 198.996094 C 94.8125 210.625 89.0625 222.527344 83.273438 234.390625 C 80.414062 232.628906 78.121094 230.046875 75.710938 227.632812 C 58.628906 210.554688 40.996094 192.527344 23.566406 175.492188 C 40.949219 174.863281 59.5 175.402344 77.332031 175.222656 C 85.035156 183.277344 93.683594 190.386719 100.835938 198.996094 "/>
<g clip-path="url(#clip3)" clip-rule="nonzero">
<path style=" stroke:none;fill-rule:nonzero;fill:rgb(0%,0%,0%);fill-opacity:1;" d="M 410.4375 175.222656 L 422.863281 175.222656 C 422.105469 176.316406 372.65625 226.589844 348.839844 249.515625 C 347.523438 246.597656 346.253906 243.636719 344.785156 240.875 C 366.488281 218.808594 388.488281 197.039062 410.4375 175.222656 "/>
</g>
<g clip-path="url(#clip4)" clip-rule="nonzero">
<path style=" stroke:none;fill-rule:nonzero;fill:rgb(0%,0%,0%);fill-opacity:1;" d="M 327.226562 258.972656 C 328.839844 261.773438 330.902344 264.121094 332.089844 267.347656 C 291.859375 306.816406 251.890625 346.542969 212.140625 386.488281 C 172.132812 347.335938 132.824219 307.492188 93.269531 267.890625 C 95.167969 264.742188 97.566406 260.660156 99.753906 258.703125 C 127.761719 286.761719 155.546875 315.578125 184.042969 344.074219 C 190.789062 350.816406 197.789062 358.085938 205.117188 365.414062 C 206.984375 367.285156 210.46875 371.957031 212.410156 372.171875 C 214.136719 372.355469 217.75 367.660156 219.703125 365.6875 C 254.941406 330.070312 292.285156 293.851562 327.226562 258.972656 "/>
</g>
<path style=" stroke:none;fill-rule:nonzero;fill:rgb(0%,0%,0%);fill-opacity:1;" d="M 200.523438 51.988281 C 205.339844 59.855469 210.429688 67.507812 215.109375 75.761719 C 152.238281 169.84375 90.59375 265.804688 27.617188 360.242188 C 25.910156 362.800781 22.148438 368.09375 21.675781 368.34375 C 77.058594 254.425781 132.480469 140.542969 187.554688 26.324219 C 189.753906 36.507812 195.695312 44.101562 200.523438 51.988281 "/>
<path style=" stroke:none;fill-rule:nonzero;fill:rgb(0%,0%,0%);fill-opacity:1;" d="M 324.257812 254.109375 C 320.414062 259.339844 315.328125 263.578125 310.75 268.160156 C 278.386719 300.519531 245.417969 333.644531 212.949219 366.226562 C 180.027344 334.125 148.058594 301.0625 115.421875 268.429688 C 110.789062 263.792969 106.003906 259.292969 101.914062 254.109375 C 109.097656 243.464844 116.339844 232.875 123.257812 221.960938 C 125.3125 223.671875 127.121094 225.285156 128.929688 227.09375 C 156.671875 254.835938 185.535156 282.96875 213.488281 310.839844 C 243.425781 280.714844 273.210938 250.433594 303.183594 220.339844 C 310.382812 231.421875 317.195312 242.886719 324.257812 254.109375 "/>
<g clip-path="url(#clip5)" clip-rule="nonzero">
<path style=" stroke:none;fill-rule:nonzero;fill:rgb(0%,0%,0%);fill-opacity:1;" d="M 80.570312 239.25 C 78.933594 242.84375 77.425781 246.011719 75.710938 249.246094 C 74.667969 248.515625 24.734375 199.308594 0.875 175.492188 C 5.363281 175.542969 13.667969 175.53125 17.351562 175.589844 C 19.511719 177.75 22.628906 180.769531 24.917969 183.058594 C 43.382812 201.519531 63.34375 221.210938 80.570312 239.25 "/>
</g>
</g>
<clipPath id="clip7">
  <path d="M 0.816406 0.230469 L 143.355469 0.230469 L 143.355469 59.269531 L 0.816406 59.269531 Z M 0.816406 0.230469 "/>
</clipPath>
<clipPath id="clip6">
  <rect width="144" height="60"/>
</clipPath>
<g id="surface6" clip-path="url(#clip6)">
<g clip-path="url(#clip7)" clip-rule="nonzero">
<path style=" stroke:none;fill-rule:nonzero;fill:rgb(0%,0%,0%);fill-opacity:1;" d="M 46.082031 15.695312 C 46.519531 14.886719 47.746094 14.066406 47.207031 13.164062 C 35.230469 17.589844 24.035156 22.796875 14.875 30.03125 C 24.839844 36.375 35.175781 42.34375 47.484375 46.339844 C 41.640625 39.601562 41.726562 23.710938 46.082031 15.695312 M 74.195312 50.835938 C 83.542969 49.964844 93.3125 42.328125 93.3125 29.75 C 93.3125 16.363281 82.347656 7.390625 69.414062 8.949219 C 59.242188 10.171875 50.859375 18.578125 50.859375 29.75 C 50.859375 43.371094 62.503906 51.925781 74.195312 50.835938 M 129.296875 30.03125 C 120.027344 22.808594 108.910156 17.433594 96.683594 13.164062 C 96.515625 13.179688 96.351562 13.207031 96.402344 13.445312 C 102.957031 21.304688 102.664062 35.363281 98.089844 43.808594 C 97.667969 44.585938 96.480469 45.339844 96.964844 46.339844 C 109.011719 42.167969 119.445312 36.394531 129.296875 30.03125 M 75.882812 0.230469 C 104.960938 3.578125 125.496094 15.464844 143.351562 30.03125 C 124.761719 43.769531 104.929688 56.265625 75.601562 59.269531 L 68.570312 59.269531 C 39.269531 56.148438 19.078125 43.914062 0.816406 29.75 C 19.007812 15.609375 39.191406 3.464844 68.289062 0.230469 Z M 75.882812 0.230469 "/>
</g>
<path style=" stroke:none;fill-rule:nonzero;fill:rgb(100%,100%,100%);fill-opacity:1;" d="M 96.683594 13.164062 C 108.910156 17.433594 120.027344 22.808594 129.296875 30.03125 C 119.445312 36.394531 109.011719 42.167969 96.964844 46.339844 C 96.480469 45.339844 97.667969 44.585938 98.089844 43.808594 C 102.664062 35.363281 102.957031 21.304688 96.402344 13.445312 C 96.351562 13.207031 96.515625 13.183594 96.683594 13.164062 "/>
<path style=" stroke:none;fill-rule:nonzero;fill:rgb(100%,100%,100%);fill-opacity:1;" d="M 93.3125 29.75 C 93.3125 42.324219 83.542969 49.964844 74.195312 50.835938 C 62.5 51.925781 50.859375 43.371094 50.859375 29.75 C 50.859375 18.574219 59.242188 10.171875 69.414062 8.945312 C 82.347656 7.394531 93.3125 16.363281 93.3125 29.75 "/>
<path style=" stroke:none;fill-rule:nonzero;fill:rgb(100%,100%,100%);fill-opacity:1;" d="M 47.207031 13.164062 C 47.746094 14.066406 46.519531 14.886719 46.082031 15.695312 C 41.726562 23.710938 41.640625 39.601562 47.488281 46.339844 C 35.175781 42.34375 24.839844 36.375 14.875 30.03125 C 24.039062 22.796875 35.230469 17.59375 47.207031 13.164062 "/>
</g>
</defs>
<g id="surface1">
<use xlink:href="#surface7" transform="matrix(1,0,0,1,3,2)"/>
<use xlink:href="#surface6" transform="matrix(1,0,0,1,144,178)"/>
<path style=" stroke:none;fill-rule:nonzero;fill:rgb(100%,100%,100%);fill-opacity:1;" d="M 241.488281 207.851562 C 241.488281 221.878906 230.117188 233.253906 216.085938 233.253906 C 202.054688 233.253906 190.679688 221.878906 190.679688 207.851562 C 190.679688 193.820312 202.054688 182.445312 216.085938 182.445312 C 230.117188 182.445312 241.488281 193.820312 241.488281 207.851562 "/>
<path style="fill:none;stroke-width:9;stroke-linecap:butt;stroke-linejoin:miter;stroke:rgb(0%,0%,0%);stroke-opacity:1;stroke-miterlimit:10;" d="M -0.00191875 0.0009375 C -0.00191875 -14.026406 -11.373013 -25.401406 -25.404263 -25.401406 C -39.435513 -25.401406 -50.810513 -14.026406 -50.810513 0.0009375 C -50.810513 14.032188 -39.435513 25.407188 -25.404263 25.407188 C -11.373013 25.407188 -0.00191875 14.032188 -0.00191875 0.0009375 Z M -0.00191875 0.0009375 " transform="matrix(1,0,0,-1,241.4902,207.8525)"/>
<path style=" stroke:none;fill-rule:nonzero;fill:rgb(0%,0%,0%);fill-opacity:1;" d="M 224.710938 207.753906 C 224.710938 212.515625 220.851562 216.378906 216.085938 216.378906 C 211.320312 216.378906 207.460938 212.515625 207.460938 207.753906 C 207.460938 202.988281 211.320312 199.125 216.085938 199.125 C 220.851562 199.125 224.710938 202.988281 224.710938 207.753906 "/>
</g>
</svg>
