<?xml version="1.0" encoding="iso-8859-1"?>
<!-- Generator: Adobe Illustrator 16.0.0, SVG Export Plug-In . SVG Version: 6.00 Build 0)  -->
<!DOCTYPE svg PUBLIC "-//W3C//DTD SVG 1.1//EN" "http://www.w3.org/Graphics/SVG/1.1/DTD/svg11.dtd">
<svg version="1.1" id="Capa_1" xmlns="http://www.w3.org/2000/svg" xmlns:xlink="http://www.w3.org/1999/xlink" x="0px" y="0px"
	 width="612px" height="612px" viewBox="0 0 612 612" style="enable-background:new 0 0 612 612;" xml:space="preserve">
<g>
	<g id="Cloud_x5F_Wind">
		<g>
			<path d="M261,72c45.27,0,87.318,22.572,112.482,60.408l8.819,13.266l15.876-1.296c2.25-0.198,4.519-0.378,6.822-0.378
				c44.658,0,81,36.342,81,81c0,14.904,12.078,27,27,27s27-12.096,27-27c0-72.954-58.176-132.57-130.572-134.928
				C373.68,44.676,319.248,18,261,18C160.632,18,78.3,96.624,72.342,195.516C28.404,218.574,0,264.42,0,315
				c0,74.448,60.552,135,135,135c14.922,0,27-12.096,27-27s-12.078-27-27-27c-44.658,0-81-36.324-81-81
				c0-34.29,21.798-64.962,54.252-76.356l18.81-6.606L126,207C126,132.552,186.552,72,261,72z M531,270
				c-21.636,0-41.976,8.424-57.276,23.724c-10.548,10.548-10.548,27.629,0,38.178c10.549,10.548,27.63,10.548,38.179,0
				C517.014,326.808,523.8,324,531,324c14.886,0,27,12.114,27,27s-12.114,27-27,27H261c-14.922,0-27,12.096-27,27s12.078,27,27,27
				h270c44.658,0,81-36.342,81-81S575.658,270,531,270z M468,450H225c-14.922,0-27,12.096-27,27s12.078,27,27,27h243
				c9.918,0,18,8.064,18,18s-8.082,18-18,18c-5.688,0-10.926-2.592-14.346-7.146c-9-11.916-25.92-14.273-37.818-5.256
				c-11.898,8.982-14.256,25.92-5.256,37.818C424.296,583.578,445.23,594,468,594c39.708,0,72-32.292,72-72S507.708,450,468,450z"/>
		</g>
	</g>
</g>
<g>
</g>
<g>
</g>
<g>
</g>
<g>
</g>
<g>
</g>
<g>
</g>
<g>
</g>
<g>
</g>
<g>
</g>
<g>
</g>
<g>
</g>
<g>
</g>
<g>
</g>
<g>
</g>
<g>
</g>
</svg>
